<svg id="Grupo_1" data-name="Grupo 1" xmlns="http://www.w3.org/2000/svg" width="44" height="34" viewBox="0 0 44 34"><defs><style>.cls-1,.cls-2{fill:#fff;fill-rule:evenodd}.cls-2{fill:#ff6702}</style></defs><path id="Forma_641" data-name="Forma 641" class="cls-1" d="M2313.75 42.337a6.519 6.519 0 0 0-11.5 0 8.958 8.958 0 0 0-.8 3.574h13.1a8.958 8.958 0 0 0-.8-3.574m-11.41 9.253a.724.724 0 0 0-.86.618c0 3.963 2.92 6.787 7.51 6.787a9.669 9.669 0 0 0 6.93-2.387c.48-.365.99-.7 1.38-.276.27.294 3.89 3.667 3.89 3.667a.836.836 0 0 1-.16 1.353c-.48.413-5.89 4.658-12.1 4.658-8.13 0-15.94-3.574-15.94-17.034 0-10.85 6.09-16.976 15.01-16.976 9.59 0 15.01 6.765 15.01 15.888V50.2a1.363 1.363 0 0 1-1.38 1.393h-19.29z" transform="translate(-2293 -32)"/><path id="Forma_642" data-name="Forma 642" class="cls-2" d="M2330.29 35.244a1.533 1.533 0 0 0-1.79.121l-2.97 2.678a.893.893 0 0 0 .08 1.432 13.063 13.063 0 0 1 4.59 10.42 14.464 14.464 0 0 1-4.83 10.631.943.943 0 0 0-.05 1.476l2.95 2.634a1.565 1.565 0 0 0 1.8.131s6.92-4.635 6.92-14.848c0-10.142-6.7-14.674-6.7-14.674" transform="translate(-2293 -32)"/></svg>