<svg id="Capa_1" data-name="Capa 1" xmlns="http://www.w3.org/2000/svg" viewBox="0 0 112.71 238.93"><defs><style>.cls-1{fill-rule:evenodd;}.cls-2{font-size:21.4px;font-family:Quicksand-SemiBold, Quicksand;font-weight:700;}.cls-3{letter-spacing:-0.12em;}.cls-4{letter-spacing:-0.01em;}</style></defs><title>Icon - tecnologia</title><path class="cls-1" d="M947.18,515.1c5.4,1.23,4.59,8.38,4.59,12.1v8.16c0,2.9-.68,6.18,2.28,6.18s2.3-2.89,2.3-5.62c0-5.49-.25-49.86.11-51.1a2.71,2.71,0,0,1,2.18-1.79c2.83,0,2.28,4.18,2.28,7v19.13c0,4.36-.7,7,3.15,7,1.77,0,6.12-5.2,6,2.8,0,2.46-.2,4.51,2.29,4.51,3.35,0,1.44-4.51,4.58-4.51,4.6,0-.15,9,4.58,9,2.9,0,1.76-2.7,3.21-3.89,1.74-1.41,3.66.06,3.66,2.49v16c0,10.36-12.16,16.88-20.61,16.88a25.86,25.86,0,0,1-12.41-3.84c-3-1.85-6.5-5.3-7.61-8.84-1.28-4.07-.6-25.35-.6-31.77Zm22.32,49h-3.13a30.16,30.16,0,0,1-9-2.09,27,27,0,0,1-11.86-9.45c-1.14-1.69-2.86-4.86-2.86-7.59V528c-4.66,0-8.55.67-11.78-3.33-1.86-2.28-2-3.68-2-7.64V460c-1.06-.24-2.29-.95-2.29-2,0-6.83-.92-8.82,2.29-9.57v-2a3.1,3.1,0,0,1-1.57-.71,2.12,2.12,0,0,1-.72-1.26c0-6.84-.92-8.83,2.29-9.57,0-4.41-.54-7.65,1.26-10.58a9,9,0,0,1,7.33-4.33h42.09a9.51,9.51,0,0,1,4.92,1.92c4.86,3.81,3.39,10.3,3.39,16.93v80.47c2.44.2,5.15,3.48,5.15,6.19v18.85c0,7.7-7.92,14.82-14.73,17.61a27.06,27.06,0,0,1-8.77,2.09ZM951.77,512s-9.17-4.75-9.17.28v11.26c-4.09,0-9.16.68-9.16-5.35V430.13c2.3,0,5.29-.27,7,.66a6.23,6.23,0,0,1,2,1.94,7.74,7.74,0,0,0,5.22,2.47h21.19c5,0,5.67-5.07,9.17-5.07h5.15v88.06l-1-1.29a7,7,0,0,0-7.9-1.8c-.3-3.45-5.24-6.5-8.88-4.79V490.62c0-3.53.47-6.55-1-8.89a6.91,6.91,0,0,0-12.33.89c-.93,2.41-.44,6.4-.44,9.4v20Zm-12.89-87.5h38.94c3.51,0,4.21,1.33,5.16,3.09-10.54,0-8.24,2.21-11.61,4.36a8.31,8.31,0,0,1-4.43,1H949.77a8.7,8.7,0,0,1-4.26-.88c-1.41-.83-1.51-1.67-2.77-2.63-2.54-1.91-4.5-1.84-8.73-1.84.17-1.94,2.59-3.09,4.87-3.09Z" transform="translate(-905.43 -420)"/><path class="cls-1" d="M939.17,484.15c0,4.32.33,7.08,2.56,10.71.81,1.33,3.73,5.61,5.45,5.61.55,0,2.23-.8.26-2.5a14.59,14.59,0,0,1-3.6-4.34c-9.09-16.82,10.72-32.26,25-21.78a16.67,16.67,0,0,1,1.73,25.46c-.61.56-1.66,1.09-1.66,2,0,2.56,3.59.49,6.51-4.31,7.9-13-2.56-28.89-15.66-28.89-6.4,0-10.8,1.46-15,5.56-2.62,2.58-5.65,7.46-5.65,12.45Z" transform="translate(-905.43 -420)"/><path class="cls-1" d="M946.05,486.12c1.82.43.55.39,2.28,0,0-13.09,18.25-15.55,20.56-1.35.39,2.44,2.35,2.3,2.35-.34,0-5.67-5.62-11.54-12-11.54-4.33,0-7.26,1.15-10,4-2.5,2.65-3.21,5.4-3.21,9.22Z" transform="translate(-905.43 -420)"/><path class="cls-1" d="M956.35,429a2.29,2.29,0,0,0,4.57,0,2.29,2.29,0,0,0-4.57,0Z" transform="translate(-905.43 -420)"/><path class="cls-1" d="M963.51,428.44c0,3.57,3.43,2.34,3.43.57,0-2.29-3.43-2.09-3.43-.57Z" transform="translate(-905.43 -420)"/><path class="cls-1" d="M949.77,428.72c0,2.46,4.2,3.32,3.15-1.13-1-.22-3.15-.67-3.15,1.13Z" transform="translate(-905.43 -420)"/><text class="cls-2" transform="translate(1.65 183.06)"><tspan class="cls-3">T</tspan><tspan x="10.68" y="0">ecno</tspan><tspan class="cls-4" x="59.57" y="0">l</tspan><tspan x="64.86" y="0">ogía</tspan><tspan x="48.49" y="25.68">y</tspan><tspan x="-1.65" y="51.36">E</tspan><tspan class="cls-4" x="10.57" y="51.36">l</tspan><tspan x="15.86" y="51.36">ectrónica</tspan></text></svg>