<?xml version="1.0" standalone="yes"?>
<svg xmlns="http://www.w3.org/2000/svg" width="200" height="200">
<path style="fill:#010101; stroke:none;" d="M0 0L0 200L200 200L200 0L0 0z"/>
<path style="fill:#1d69ab; stroke:none;" d="M10 70L10 130L75 130L75 120L175 120L175 110C172.238 112.601 170.208 115.883 165.997 115.883C159.127 115.882 155.885 108.265 160.617 103.318C167.268 96.3652 172.023 106.663 178.015 107.772C183.401 108.768 189.754 106.468 189.512 100C189.264 93.3807 182.717 90.7955 177.043 92.4336C171.315 94.0874 167.177 103.425 160.399 96.6821C156.038 92.3437 159.048 84.867 165.012 84.1674C169.659 83.6223 171.854 87.377 175 90L175 78L75 78L75 70L10 70z"/>
<path style="fill:#010101; stroke:none;" d="M14 76L14 124L71 124L71 120L61 120L61 78L71 78L71 76L14 76z"/>
<path style="fill:#87acce; stroke:none;" d="M160 85C163.545 85.5533 167.377 85.0024 171 85C167.418 83.4971 163.671 83.9149 160 85z"/>
<path style="fill:#ddd417; stroke:none;" d="M161.329 86.0278C152.572 91.3843 162.651 103.119 170.401 97.9722C179.147 92.1637 169.298 81.1543 161.329 86.0278z"/>
<path style="fill:#1d69ab; stroke:none;" d="M25 115C27.6153 114.998 31.0805 115.519 33.3665 113.973C37.1566 111.41 37.6519 108.039 42.9969 108.039C48.2684 108.039 48.5743 111.581 52.3897 113.973C54.5722 115.341 57.543 114.991 60 115C57.6594 106.875 53.2455 98.4764 49.2431 91.0193C47.3659 87.5219 44.5001 84.7548 40.213 86.6042C36.9974 87.9913 36.0251 92.0991 34.6914 95C31.5968 101.731 27.8479 108.16 25 115z"/>
<path style="fill:#87acce; stroke:none;" d="M171 86L172 87L171 86M159 87L160 88L159 87M173 89L174 90L173 89M157 90L158 91L157 90M174 90L175 91L174 90M75 93C76.506 93.683 77.3148 93.8259 79 94C77.4939 93.317 76.6852 93.1741 75 93M88 93C89.506 93.683 90.3148 93.8259 92 94C90.494 93.317 89.6852 93.1741 88 93M97 96C100.886 93.8387 104.646 94.0005 109 94C105.743 92.1236 97.9467 91.5821 97 96M111 93C113.404 97.3235 114.083 102.931 111 107C115.694 108.769 114 96.0074 114 93L111 93M116 93C119.432 94.4403 123.3 94 127 94C123.568 92.5597 119.7 93 116 93M132 95L135 94C133.234 93.5991 133.443 93.7108 132 95M142 93C144.613 94.0977 147.165 93.9928 150 94C147.387 92.9023 144.836 93.0072 142 93M73 94L74 95L73 94z"/>
<path style="fill:#f6f9fb; stroke:none;" d="M82 104C80.0912 104.293 77.9743 104.86 76.1481 103.883C73.4601 102.445 73.0215 98.5724 76.1281 97.287C77.8427 96.5776 79.4174 97.4467 81 98C81.9857 96.5215 82 96.7968 82 95C80.3425 94.6101 78.7159 94.1299 76.99 94.1991C63.3631 94.7451 75.1874 114.507 82 104z"/>
<path style="fill:#87acce; stroke:none;" d="M80 94L81 95L80 94M86 94L85 96C86.2627 95.0287 86.3919 95.3063 86 94z"/>
<path style="fill:#f6f9fb; stroke:none;" d="M87.1481 95.0285C80.1509 99.1167 86.6962 110.24 93.7716 105.971C100.637 101.829 94.265 90.8704 87.1481 95.0285M98 94L98 96L102 96L102 107L104 107L104 96L109 96L109 94L98 94M111 94L111 107L113 107L113 94L111 94M116 94L116 96L123 96C120.355 99.5723 117.611 102.834 116 107L127 107L127 105L120 105C122.324 101.28 125.213 98.0113 127 94L116 94M128 107C130.364 106.518 130.518 106.364 131 104C134.487 104.256 136.867 105.598 140 107L136 94C130.625 95.7358 129.605 102.076 128 107M142 94L142 107L145 107L145 103C147.777 104.309 150.041 106.135 153 107C152.045 105.233 151.434 104.393 150 103C155.307 95.3709 148.648 94.0051 142 94z"/>
<path style="fill:#87acce; stroke:none;" d="M158 94L159 95L158 94z"/>
<path style="fill:#010101; stroke:none;" d="M42 95L39 103L47 103C45.6959 99.8931 44.3978 97.3713 42 95z"/>
<path style="fill:#87acce; stroke:none;" d="M172 95L173 96L172 95M71 96L72 97L71 96M82 96L83 97L82 96M88 96L87 98C88.2627 97.0287 88.3919 97.3062 88 96z"/>
<path style="fill:#1d69ab; stroke:none;" d="M89.2994 97.1759C85.8112 98.8924 87.829 105.729 91.7006 103.824C95.1888 102.108 93.171 95.2707 89.2994 97.1759z"/>
<path style="fill:#87acce; stroke:none;" d="M92 96L93 97L92 96M104 96C104 99.99 104.474 103.734 102 107C106.669 108.76 105.182 98.4474 104 96M136 96L137 97L136 96z"/>
<path style="fill:#1d69ab; stroke:none;" d="M145 96L145 100C146.878 99.8241 148.199 99.5618 150 99L150 97C148.199 96.4382 146.878 96.1759 145 96z"/>
<path style="fill:#87acce; stroke:none;" d="M149 96L150 97L149 96M152 96L153 97L152 96M159 96L160 97L159 96M81 97L82 98L81 97M93 97L94 98L93 97M96 97L97 98L96 97M125 97L126 98L125 97M131 97L132 98L131 97M134 97L133 99C134.263 98.0287 134.392 98.3063 134 97M171 97L172 98L171 97M73 98L74 99L73 98M121 98L122 99L121 98M124 98L125 99L124 98z"/>
<path style="fill:#1d69ab; stroke:none;" d="M134 98C133.146 100.697 133.149 101.386 136 102C135.404 100.44 134.911 99.3766 134 98z"/>
<path style="fill:#87acce; stroke:none;" d="M137.333 98.6667C137.278 98.7223 137.222 99.7778 137.667 99.3333C137.722 99.2778 137.778 98.2222 137.333 98.6667M83 99L83 102C83.6961 100.446 83.6961 100.554 83 99M86 99L86 102C86.6961 100.446 86.6961 100.554 86 99M94 99L94 102C94.6961 100.446 94.6961 100.554 94 99M97 99L97 102C97.6961 100.446 97.6961 100.554 97 99M120 99L121 100L120 99M123 99L124 100L123 99M130 99L131 100L130 99M149 99L150 100L149 99M135 100L136 101L135 100M145 100C146.506 100.683 147.315 100.826 149 101C147.494 100.317 146.685 100.174 145 100M152 100L153 101L152 100M132 101L133 102L132 101M138 101L139 102L138 101M151 101L152 102L151 101M160 102C163.545 102.553 167.377 102.002 171 102C167.418 100.497 163.671 100.915 160 102M70 102L71 103L70 102M73 102L74 103L73 102M121 102L122 103L121 102M129 102L130 103L129 102M150 102L151 103L150 102z"/>
<path style="fill:#f6f9fb; stroke:none;" d="M161.329 103.028C152.572 108.384 162.651 120.119 170.401 114.972C179.147 109.164 169.298 98.1543 161.329 103.028z"/>
<path style="fill:#87acce; stroke:none;" d="M80.6667 103.333C80.2222 103.778 81.2778 103.722 81.3333 103.667C81.7778 103.222 80.7222 103.278 80.6667 103.333M87 103L88 104L87 103M93 103L94 104L93 103M96 103L97 104L96 103M117 103L118 104L117 103M120 103L121 104L120 103M171 103L172 104L171 103M71 104L72 105L71 104M79 104L80 105L79 104M82 104L83 105L82 104M84 104L85 105L84 104M88 104L89 105L88 104M92 104L93 105L92 104M116 104L117 105L116 104M128.333 104.667C128.278 104.722 128.222 105.778 128.667 105.333C128.722 105.278 128.778 104.222 128.333 104.667M131 104L132 105L131 104M139 104L140 105L139 104M148 104L149 105L148 104M159 104L160 105L159 104M172 104L173 105L172 104M85 105L86 106L85 105M95 105L96 106L95 105M115 105C116.013 109.726 123.005 108 127 108C123.051 106.343 118.913 107.176 115 105M152 105L153 106L152 105M73 106L74 107L73 106M86 106L87 107L86 106M94 106L95 107L94 106M137 106L138 107L137 106M140 106L138 107C139.482 107.791 140.796 107.87 140 106M173 106L174 107L173 106M75 107C76.5061 107.683 77.3148 107.826 79 108C77.4939 107.317 76.6852 107.174 75 107M88 107C89.7691 107.779 91.0359 107.912 93 108C91.231 107.221 89.964 107.088 88 107M128 107C129.248 107.685 129.548 107.749 131 108C129.752 107.315 129.452 107.251 128 107M142 107C143.248 107.685 143.548 107.749 145 108C143.752 107.315 143.452 107.251 142 107M150 107C151.506 107.683 152.315 107.826 154 108C152.494 107.317 151.685 107.174 150 107M157 107L158 108L157 107M174 107L175 108L174 107M158 111L159 112L158 111M172 112L173 113L172 112M159 113L160 114L159 113M171 114L172 115L171 114z"/>
</svg>
